<svg width="24" height="24" viewBox="0 0 24 24" fill="none" xmlns="http://www.w3.org/2000/svg">
<path fill-rule="evenodd" clip-rule="evenodd" d="M10 6.75C10 6.55109 9.92098 6.36032 9.78033 6.21967C9.63968 6.07902 9.44891 6 9.25 6H8.75C8.55109 6 8.36032 6.07902 8.21967 6.21967C8.07902 6.36032 8 6.55109 8 6.75V15.25C8 15.664 8.336 16 8.75 16H9.25C9.44891 16 9.63968 15.921 9.78033 15.7803C9.92098 15.6397 10 15.4489 10 15.25V6.75ZM15 10.75C15 10.5511 14.921 10.3603 14.7803 10.2197C14.6397 10.079 14.4489 10 14.25 10H13.75C13.5511 10 13.3603 10.079 13.2197 10.2197C13.079 10.3603 13 10.5511 13 10.75V15.25C13 15.664 13.336 16 13.75 16H14.25C14.4489 16 14.6397 15.921 14.7803 15.7803C14.921 15.6397 15 15.4489 15 15.25V10.75Z" fill="black"/>
<path d="M17.5 18C17.6326 18 17.7598 18.0527 17.8536 18.1464C17.9473 18.2402 18 18.3674 18 18.5C18 18.6326 17.9473 18.7598 17.8536 18.8536C17.7598 18.9473 17.6326 19 17.5 19H5.5C5.36739 19 5.24021 18.9473 5.14645 18.8536C5.05268 18.7598 5 18.6326 5 18.5C5 18.3674 5.05268 18.2402 5.14645 18.1464C5.24021 18.0527 5.36739 18 5.5 18H17.5Z" fill="black"/>
</svg>
