<svg width="24" height="24" viewBox="0 0 24 24" fill="none" xmlns="http://www.w3.org/2000/svg">
<path fill-rule="evenodd" clip-rule="evenodd" d="M10 17.25C10 17.4489 9.92098 17.6397 9.78033 17.7803C9.63968 17.921 9.44891 18 9.25 18H8.75C8.55109 18 8.36032 17.921 8.21967 17.7803C8.07902 17.6397 8 17.4489 8 17.25V8.75C8 8.55109 8.07902 8.36032 8.21967 8.21967C8.36032 8.07902 8.55109 8 8.75 8H9.25C9.44891 8 9.63968 8.07902 9.78033 8.21967C9.92098 8.36032 10 8.55109 10 8.75V17.25ZM15 13.25C15 13.4489 14.921 13.6397 14.7803 13.7803C14.6397 13.921 14.4489 14 14.25 14H13.75C13.5511 14 13.3603 13.921 13.2197 13.7803C13.079 13.6397 13 13.4489 13 13.25V8.75C13 8.55109 13.079 8.36032 13.2197 8.21967C13.3603 8.07902 13.5511 8 13.75 8H14.25C14.4489 8 14.6397 8.07902 14.7803 8.21967C14.921 8.36032 15 8.55109 15 8.75V13.25Z" fill="black"/>
<path d="M17.5 6C17.6326 6 17.7598 5.94732 17.8536 5.85355C17.9473 5.75979 18 5.63261 18 5.5C18 5.36739 17.9473 5.24021 17.8536 5.14645C17.7598 5.05268 17.6326 5 17.5 5H5.5C5.36739 5 5.24021 5.05268 5.14645 5.14645C5.05268 5.24021 5 5.36739 5 5.5C5 5.63261 5.05268 5.75979 5.14645 5.85355C5.24021 5.94732 5.36739 6 5.5 6H17.5Z" fill="black"/>
</svg>
