<svg width="24" height="24" viewBox="0 0 24 24" fill="none" xmlns="http://www.w3.org/2000/svg">
<path fill-rule="evenodd" clip-rule="evenodd" d="M17.25 10C17.4489 10 17.6397 9.92098 17.7803 9.78033C17.921 9.63968 18 9.44891 18 9.25V8.75C18 8.55109 17.921 8.36032 17.7803 8.21967C17.6397 8.07902 17.4489 8 17.25 8H8.75C8.55109 8 8.36032 8.07902 8.21967 8.21967C8.07902 8.36032 8 8.55109 8 8.75V9.25C8 9.664 8.336 10 8.75 10H17.25ZM13.25 15C13.4489 15 13.6397 14.921 13.7803 14.7803C13.921 14.6397 14 14.4489 14 14.25V13.75C14 13.5511 13.921 13.3603 13.7803 13.2197C13.6397 13.079 13.4489 13 13.25 13H8.75C8.55109 13 8.36032 13.079 8.21967 13.2197C8.07902 13.3603 8 13.5511 8 13.75V14.25C8 14.664 8.336 15 8.75 15H13.25Z" fill="black"/>
<path d="M6 17.5C6 17.6326 5.94732 17.7598 5.85355 17.8536C5.75979 17.9473 5.63261 18 5.5 18C5.36739 18 5.24021 17.9473 5.14645 17.8536C5.05268 17.7598 5 17.6326 5 17.5V5.5C5 5.36739 5.05268 5.24021 5.14645 5.14645C5.24021 5.05268 5.36739 5 5.5 5C5.63261 5 5.75979 5.05268 5.85355 5.14645C5.94732 5.24021 6 5.36739 6 5.5V17.5Z" fill="black"/>
</svg>
