<svg width="24" height="24" viewBox="0 0 24 24" fill="none" xmlns="http://www.w3.org/2000/svg">
<path fill-rule="evenodd" clip-rule="evenodd" d="M6.75 10C6.55109 10 6.36032 9.92098 6.21967 9.78033C6.07902 9.63968 6 9.44891 6 9.25V8.75C6 8.55109 6.07902 8.36032 6.21967 8.21967C6.36032 8.07902 6.55109 8 6.75 8H15.25C15.4489 8 15.6397 8.07902 15.7803 8.21967C15.921 8.36032 16 8.55109 16 8.75V9.25C16 9.44891 15.921 9.63968 15.7803 9.78033C15.6397 9.92098 15.4489 10 15.25 10H6.75ZM10.75 15C10.5511 15 10.3603 14.921 10.2197 14.7803C10.079 14.6397 10 14.4489 10 14.25V13.75C10 13.5511 10.079 13.3603 10.2197 13.2197C10.3603 13.079 10.5511 13 10.75 13H15.25C15.4489 13 15.6397 13.079 15.7803 13.2197C15.921 13.3603 16 13.5511 16 13.75V14.25C16 14.4489 15.921 14.6397 15.7803 14.7803C15.6397 14.921 15.4489 15 15.25 15H10.75Z" fill="black"/>
<path d="M18 17.5C18 17.6326 18.0527 17.7598 18.1464 17.8536C18.2402 17.9473 18.3674 18 18.5 18C18.6326 18 18.7598 17.9473 18.8536 17.8536C18.9473 17.7598 19 17.6326 19 17.5V5.5C19 5.36739 18.9473 5.24021 18.8536 5.14645C18.7598 5.05268 18.6326 5 18.5 5C18.3674 5 18.2402 5.05268 18.1464 5.14645C18.0527 5.24021 18 5.36739 18 5.5V17.5Z" fill="black"/>
</svg>
