<svg width="24" height="24" viewBox="0 0 24 24" fill="none" xmlns="http://www.w3.org/2000/svg">
<path fill-rule="evenodd" clip-rule="evenodd" d="M17.25 10C17.4489 10 17.6397 9.92098 17.7803 9.78033C17.921 9.63968 18 9.44891 18 9.25V8.75C18 8.55109 17.921 8.36032 17.7803 8.21967C17.6397 8.07902 17.4489 8 17.25 8H7.75C7.55109 8 7.36032 8.07902 7.21967 8.21967C7.07902 8.36032 7 8.55109 7 8.75V9.25C7 9.664 7.336 10 7.75 10H17.25ZM15.25 15C15.4489 15 15.6397 14.921 15.7803 14.7803C15.921 14.6397 16 14.4489 16 14.25V13.75C16 13.5511 15.921 13.3603 15.7803 13.2197C15.6397 13.079 15.4489 13 15.25 13H9.75C9.55109 13 9.36032 13.079 9.21967 13.2197C9.07902 13.3603 9 13.5511 9 13.75V14.25C9 14.664 9.336 15 9.75 15H15.25Z" fill="black"/>
<path fill-rule="evenodd" clip-rule="evenodd" d="M13 17.5C13 17.6326 12.9473 17.7598 12.8536 17.8536C12.7598 17.9473 12.6326 18 12.5 18C12.3674 18 12.2402 17.9473 12.1464 17.8536C12.0527 17.7598 12 17.6326 12 17.5V15H13V17.5ZM13 13V10H12V13H13ZM13 5.5V8H12V5.5C12 5.36739 12.0527 5.24021 12.1464 5.14645C12.2402 5.05268 12.3674 5 12.5 5C12.6326 5 12.7598 5.05268 12.8536 5.14645C12.9473 5.24021 13 5.36739 13 5.5Z" fill="black"/>
</svg>
