<svg width="24" height="24" viewBox="0 0 24 24" fill="none" xmlns="http://www.w3.org/2000/svg">
<path fill-rule="evenodd" clip-rule="evenodd" d="M10 6.75C10 6.55109 9.92098 6.36032 9.78033 6.21967C9.63968 6.07902 9.44891 6 9.25 6H8.75C8.55109 6 8.36032 6.07902 8.21967 6.21967C8.07902 6.36032 8 6.55109 8 6.75V16.25C8 16.664 8.336 17 8.75 17H9.25C9.44891 17 9.63968 16.921 9.78033 16.7803C9.92098 16.6397 10 16.4489 10 16.25V6.75ZM15 8.75C15 8.55109 14.921 8.36032 14.7803 8.21967C14.6397 8.07902 14.4489 8 14.25 8H13.75C13.5511 8 13.3603 8.07902 13.2197 8.21967C13.079 8.36032 13 8.55109 13 8.75V14.25C13 14.664 13.336 15 13.75 15H14.25C14.4489 15 14.6397 14.921 14.7803 14.7803C14.921 14.6397 15 14.4489 15 14.25V8.75Z" fill="black"/>
<path fill-rule="evenodd" clip-rule="evenodd" d="M17.5 11C17.6326 11 17.7598 11.0527 17.8536 11.1464C17.9473 11.2402 18 11.3674 18 11.5C18 11.6326 17.9473 11.7598 17.8536 11.8536C17.7598 11.9473 17.6326 12 17.5 12H15V11H17.5ZM13 11H10V12H13V11ZM5.5 11H8V12H5.5C5.36739 12 5.24021 11.9473 5.14645 11.8536C5.05268 11.7598 5 11.6326 5 11.5C5 11.3674 5.05268 11.2402 5.14645 11.1464C5.24021 11.0527 5.36739 11 5.5 11Z" fill="black"/>
</svg>
