<svg width="24" height="24" viewBox="0 0 24 24" fill="none" xmlns="http://www.w3.org/2000/svg">
<path fill-rule="evenodd" clip-rule="evenodd" d="M7.5 7H9.5C9.776 7 10 7.224 10 7.5V9.5C10 9.776 9.776 10 9.5 10H7.5C7.224 10 7 9.776 7 9.5V7.5C7 7.224 7.224 7 7.5 7ZM6 7.5C6 6.672 6.672 6 7.5 6H9.5C10.328 6 11 6.672 11 7.5V9.5C11 10.328 10.328 11 9.5 11H7.5C6.672 11 6 10.328 6 9.5V7.5ZM7.5 14H9.5C9.776 14 10 14.224 10 14.5V16.5C10 16.776 9.776 17 9.5 17H7.5C7.224 17 7 16.776 7 16.5V14.5C7 14.224 7.224 14 7.5 14ZM6 14.5C6 13.672 6.672 13 7.5 13H9.5C10.328 13 11 13.672 11 14.5V16.5C11 17.328 10.328 18 9.5 18H7.5C6.672 18 6 17.328 6 16.5V14.5ZM16.5 7H14.5C14.224 7 14 7.224 14 7.5V9.5C14 9.776 14.224 10 14.5 10H16.5C16.776 10 17 9.776 17 9.5V7.5C17 7.224 16.776 7 16.5 7ZM14.5 6C13.672 6 13 6.672 13 7.5V9.5C13 10.328 13.672 11 14.5 11H16.5C17.328 11 18 10.328 18 9.5V7.5C18 6.672 17.328 6 16.5 6H14.5ZM14.5 14H16.5C16.776 14 17 14.224 17 14.5V16.5C17 16.776 16.776 17 16.5 17H14.5C14.224 17 14 16.776 14 16.5V14.5C14 14.224 14.224 14 14.5 14ZM13 14.5C13 13.672 13.672 13 14.5 13H16.5C17.328 13 18 13.672 18 14.5V16.5C18 17.328 17.328 18 16.5 18H14.5C13.672 18 13 17.328 13 16.5V14.5Z" fill="black"/>
</svg>
