<svg width="24" height="24" viewBox="0 0 24 24" fill="none" xmlns="http://www.w3.org/2000/svg">
<path d="M15.147 13.147C15.2408 13.0533 15.368 13.0006 15.5005 13.0006C15.6331 13.0006 15.7603 13.0533 15.854 13.147L17.854 15.147C17.9478 15.2408 18.0004 15.3679 18.0004 15.5005C18.0004 15.6331 17.9478 15.7602 17.854 15.854L15.854 17.854C15.7597 17.9451 15.6334 17.9955 15.5023 17.9943C15.3712 17.9932 15.2458 17.9406 15.1531 17.8479C15.0604 17.7552 15.0078 17.6298 15.0067 17.4987C15.0056 17.3676 15.056 17.2413 15.147 17.147L16.293 16H6.50004L6.39904 15.99C6.28601 15.967 6.18439 15.9057 6.1114 15.8164C6.03841 15.7271 5.99854 15.6153 5.99854 15.5C5.99854 15.3847 6.03841 15.2729 6.1114 15.1836C6.18439 15.0943 6.28601 15.033 6.39904 15.01L6.50004 15H16.293L15.147 13.854C15.0533 13.7602 15.0006 13.6331 15.0006 13.5005C15.0006 13.3679 15.0533 13.2408 15.147 13.147ZM9.65404 6.007C10.0234 6.04512 10.3655 6.21889 10.6141 6.49468C10.8628 6.77047 11.0003 7.12868 11 7.5V9.5L10.993 9.653C10.958 9.99645 10.8056 10.3173 10.5614 10.5614C10.3173 10.8055 9.99648 10.958 9.65304 10.993L9.50004 11H7.50004L7.34704 10.992C7.00392 10.9568 6.68343 10.8044 6.43954 10.5605C6.19564 10.3166 6.04325 9.99611 6.00804 9.653L6.00004 9.5V7.5C6.00008 7.12869 6.13784 6.7706 6.38665 6.495C6.63547 6.2194 6.97767 6.04587 7.34704 6.008L7.50004 6H9.50004L9.65404 6.007ZM16.654 6.007C17.0234 6.04512 17.3655 6.21889 17.6141 6.49468C17.8628 6.77047 18.0003 7.12868 18 7.5V9.5L17.993 9.653C17.958 9.99645 17.8056 10.3173 17.5614 10.5614C17.3173 10.8055 16.9965 10.958 16.653 10.993L16.5 11H14.5L14.347 10.992C14.0039 10.9568 13.6834 10.8044 13.4395 10.5605C13.1956 10.3166 13.0433 9.99611 13.008 9.653L13 9.5V7.5C13.0001 7.12869 13.1378 6.7706 13.3867 6.495C13.6355 6.2194 13.9777 6.04587 14.347 6.008L14.5 6H16.5L16.654 6.007ZM14.5 7C14.3674 7 14.2403 7.05268 14.1465 7.14645C14.0527 7.24021 14 7.36739 14 7.5V9.5C14 9.63261 14.0527 9.75979 14.1465 9.85355C14.2403 9.94732 14.3674 10 14.5 10H16.5C16.6326 10 16.7598 9.94732 16.8536 9.85355C16.9474 9.75979 17 9.63261 17 9.5V7.5C17 7.36739 16.9474 7.24021 16.8536 7.14645C16.7598 7.05268 16.6326 7 16.5 7H14.5ZM7.50004 7C7.36743 7 7.24025 7.05268 7.14648 7.14645C7.05271 7.24021 7.00004 7.36739 7.00004 7.5V9.5C7.00004 9.63261 7.05271 9.75979 7.14648 9.85355C7.24025 9.94732 7.36743 10 7.50004 10H9.50004C9.63264 10 9.75982 9.94732 9.85359 9.85355C9.94736 9.75979 10 9.63261 10 9.5V7.5C10 7.36739 9.94736 7.24021 9.85359 7.14645C9.75982 7.05268 9.63264 7 9.50004 7H7.50004Z" fill="black"/>
</svg>
