<svg width="24" height="24" viewBox="0 0 24 24" fill="none" xmlns="http://www.w3.org/2000/svg">
<path d="M9.654 13.008C10.0232 13.0461 10.3651 13.2197 10.6138 13.4953C10.8624 13.7709 11 14.1289 11 14.5V16.5L10.992 16.653C10.957 16.9961 10.8049 17.3167 10.5612 17.5608C10.3175 17.8049 9.99709 17.9575 9.654 17.993L9.5 18H7.5L7.347 17.992C7.00389 17.9568 6.68339 17.8044 6.4395 17.5605C6.19561 17.3166 6.04322 16.9961 6.008 16.653L6 16.5V14.5C6.00004 14.1287 6.1378 13.7706 6.38662 13.495C6.63544 13.2194 6.97763 13.0459 7.347 13.008L7.5 13H9.5L9.654 13.008ZM15.5 6C15.6153 5.99998 15.727 6.03978 15.8163 6.11267C15.9056 6.18556 15.9669 6.28706 15.99 6.4L16 6.5V16.294L17.146 15.148C17.2413 15.0623 17.3659 15.0163 17.4941 15.0197C17.6223 15.023 17.7443 15.0754 17.835 15.166C17.9257 15.2566 17.9783 15.3786 17.9818 15.5067C17.9853 15.6349 17.9396 15.7595 17.854 15.855L15.854 17.855C15.7602 17.9487 15.6331 18.0014 15.5005 18.0014C15.3679 18.0014 15.2408 17.9487 15.147 17.855L13.147 15.855C13.0559 15.7607 13.0055 15.6344 13.0067 15.5033C13.0078 15.3722 13.0604 15.2468 13.1531 15.1541C13.2458 15.0614 13.3712 15.0088 13.5023 15.0077C13.6334 15.0065 13.7597 15.0569 13.854 15.148L15 16.294V6.5L15.01 6.4C15.0331 6.28706 15.0944 6.18556 15.1837 6.11267C15.273 6.03978 15.3847 5.99998 15.5 6ZM7.5 14C7.36739 14 7.24021 14.0527 7.14645 14.1464C7.05268 14.2402 7 14.3674 7 14.5V16.5C7 16.6326 7.05268 16.7598 7.14645 16.8536C7.24021 16.9473 7.36739 17 7.5 17H9.5C9.63261 17 9.75979 16.9473 9.85355 16.8536C9.94732 16.7598 10 16.6326 10 16.5V14.5C10 14.3674 9.94732 14.2402 9.85355 14.1464C9.75979 14.0527 9.63261 14 9.5 14H7.5ZM9.654 6.008C10.0232 6.0461 10.3651 6.21973 10.6138 6.49531C10.8624 6.77089 11 7.12885 11 7.5V9.5L10.992 9.653C10.957 9.99614 10.8049 10.3167 10.5612 10.5608C10.3175 10.8049 9.99709 10.9575 9.654 10.993L9.5 11H7.5L7.347 10.992C7.00389 10.9568 6.68339 10.8044 6.4395 10.5605C6.19561 10.3166 6.04322 9.99611 6.008 9.653L6 9.5V7.5C6.00004 7.12869 6.1378 6.7706 6.38662 6.495C6.63544 6.2194 6.97763 6.04587 7.347 6.008L7.5 6H9.5L9.654 6.008ZM7.5 7C7.36739 7 7.24021 7.05268 7.14645 7.14645C7.05268 7.24021 7 7.36739 7 7.5V9.5C7 9.63261 7.05268 9.75979 7.14645 9.85355C7.24021 9.94732 7.36739 10 7.5 10H9.5C9.63261 10 9.75979 9.94732 9.85355 9.85355C9.94732 9.75979 10 9.63261 10 9.5V7.5C10 7.36739 9.94732 7.24021 9.85355 7.14645C9.75979 7.05268 9.63261 7 9.5 7H7.5Z" fill="black"/>
</svg>
