<svg width="24" height="24" viewBox="0 0 24 24" fill="none" xmlns="http://www.w3.org/2000/svg">
<path d="M11.653 13.008C12.0224 13.0459 12.3646 13.2194 12.6134 13.495C12.8622 13.7706 13 14.1287 13 14.5V16.5L12.992 16.653C12.957 16.9963 12.8047 17.317 12.5608 17.5611C12.3169 17.8052 11.9963 17.9577 11.653 17.993L11.5 18H9.5L9.347 17.992C9.00371 17.957 8.68298 17.8047 8.43889 17.5608C8.19479 17.3169 8.04226 16.9963 8.007 16.653L8 16.5V14.5C8.00004 14.1287 8.1378 13.7706 8.38662 13.495C8.63544 13.2194 8.97763 13.0459 9.347 13.008L9.5 13H11.5L11.653 13.008ZM9.5 14C9.36739 14 9.24021 14.0527 9.14645 14.1464C9.05268 14.2402 9 14.3674 9 14.5V16.5C9 16.6326 9.05268 16.7598 9.14645 16.8536C9.24021 16.9473 9.36739 17 9.5 17H11.5C11.6326 17 11.7598 16.9473 11.8536 16.8536C11.9473 16.7598 12 16.6326 12 16.5V14.5C12 14.3674 11.9473 14.2402 11.8536 14.1464C11.7598 14.0527 11.6326 14 11.5 14H9.5ZM16.653 8.008C17.0224 8.04587 17.3646 8.2194 17.6134 8.495C17.8622 8.7706 18 9.12869 18 9.5V11.5L17.992 11.653C17.957 11.9963 17.8047 12.317 17.5608 12.5611C17.3169 12.8052 16.9963 12.9577 16.653 12.993L16.5 13H14.5L14.347 12.992C14.0037 12.957 13.683 12.8047 13.4389 12.5608C13.1948 12.3169 13.0423 11.9963 13.007 11.653L13 11.5V9.5C13 9.12869 13.1378 8.7706 13.3866 8.495C13.6354 8.2194 13.9776 8.04587 14.347 8.008L14.5 8H16.5L16.653 8.008ZM14.5 9C14.3674 9 14.2402 9.05268 14.1464 9.14645C14.0527 9.24021 14 9.36739 14 9.5V11.5C14 11.6326 14.0527 11.7598 14.1464 11.8536C14.2402 11.9473 14.3674 12 14.5 12H16.5C16.6326 12 16.7598 11.9473 16.8536 11.8536C16.9473 11.7598 17 11.6326 17 11.5V9.5C17 9.36739 16.9473 9.24021 16.8536 9.14645C16.7598 9.05268 16.6326 9 16.5 9H14.5ZM9.653 6.008C10.0224 6.04587 10.3646 6.2194 10.6134 6.495C10.8622 6.7706 11 7.12869 11 7.5V9.5L10.992 9.653C10.957 9.99629 10.8047 10.317 10.5608 10.5611C10.3169 10.8052 9.99627 10.9577 9.653 10.993L9.5 11H7.5L7.347 10.992C7.00371 10.957 6.68298 10.8047 6.43889 10.5608C6.19479 10.3169 6.04226 9.99627 6.007 9.653L6 9.5V7.5C6.00004 7.12869 6.1378 6.7706 6.38662 6.495C6.63544 6.2194 6.97763 6.04587 7.347 6.008L7.5 6H9.5L9.653 6.008ZM7.5 7C7.36739 7 7.24021 7.05268 7.14645 7.14645C7.05268 7.24021 7 7.36739 7 7.5V9.5C7 9.63261 7.05268 9.75979 7.14645 9.85355C7.24021 9.94732 7.36739 10 7.5 10H9.5C9.63261 10 9.75979 9.94732 9.85355 9.85355C9.94732 9.75979 10 9.63261 10 9.5V7.5C10 7.36739 9.94732 7.24021 9.85355 7.14645C9.75979 7.05268 9.63261 7 9.5 7H7.5Z" fill="black"/>
</svg>
