<svg width="24" height="24" viewBox="0 0 24 24" fill="none" xmlns="http://www.w3.org/2000/svg">
<path fill-rule="evenodd" clip-rule="evenodd" d="M8 7.5C8 7.36739 7.94732 7.24021 7.85355 7.14645C7.75979 7.05268 7.63261 7 7.5 7C7.36739 7 7.24021 7.05268 7.14645 7.14645C7.05268 7.24021 7 7.36739 7 7.5V16.5C7 16.6326 7.05268 16.7598 7.14645 16.8536C7.24021 16.9473 7.36739 17 7.5 17C7.63261 17 7.75979 16.9473 7.85355 16.8536C7.94732 16.7598 8 16.6326 8 16.5V7.5ZM16.5 7C16.6326 7 16.7598 7.05268 16.8536 7.14645C16.9473 7.24021 17 7.36739 17 7.5V16.5C17 16.6326 16.9473 16.7598 16.8536 16.8536C16.7598 16.9473 16.6326 17 16.5 17C16.3674 17 16.2402 16.9473 16.1464 16.8536C16.0527 16.7598 16 16.6326 16 16.5V7.5C16 7.36739 16.0527 7.24021 16.1464 7.14645C16.2402 7.05268 16.3674 7 16.5 7ZM13 13V11H11V13H13ZM14 11C14 10.7348 13.8946 10.4804 13.7071 10.2929C13.5196 10.1054 13.2652 10 13 10H11C10.7348 10 10.4804 10.1054 10.2929 10.2929C10.1054 10.4804 10 10.7348 10 11V13C10 13.2652 10.1054 13.5196 10.2929 13.7071C10.4804 13.8946 10.7348 14 11 14H13C13.2652 14 13.5196 13.8946 13.7071 13.7071C13.8946 13.5196 14 13.2652 14 13V11Z" fill="black"/>
</svg>
